<svg width="32" height="32" viewBox="0 0 32 32" fill="none" xmlns="http://www.w3.org/2000/svg">
<rect x="0.783333" y="0.783333" width="29.7667" height="29.7667" rx="14.8833" stroke="#CFD6DC" stroke-width="1.56667"/>
<path d="M12.8577 20.289C12.1764 20.289 11.5929 20.1115 11.1074 19.7566C10.6219 19.4017 10.2507 18.8835 9.99363 18.2022C9.73659 17.5208 9.60808 16.6987 9.60808 15.7359C9.60808 14.7812 9.73659 13.9632 9.99363 13.2819C10.2507 12.6005 10.624 12.0803 11.1135 11.7213C11.6031 11.3623 12.1845 11.1828 12.8577 11.1828C13.5309 11.1828 14.1122 11.3623 14.6018 11.7213C15.0914 12.0803 15.4647 12.6005 15.7217 13.2819C15.9788 13.9632 16.1073 14.7812 16.1073 15.7359C16.1073 16.6987 15.9788 17.5208 15.7217 18.2022C15.4688 18.8835 15.0975 19.4017 14.6079 19.7566C14.1224 20.1115 13.539 20.289 12.8577 20.289ZM12.8577 19.1324C13.2534 19.1324 13.5941 19.0018 13.8797 18.7407C14.1694 18.4796 14.3897 18.0961 14.5406 17.5902C14.6916 17.0802 14.765 16.4621 14.7609 15.7359C14.7609 15.0097 14.6855 14.3916 14.5345 13.8816C14.3836 13.3716 14.1653 12.984 13.8797 12.7188C13.5941 12.4536 13.2534 12.3211 12.8577 12.3211C12.4619 12.3211 12.1213 12.4536 11.8357 12.7188C11.5501 12.984 11.3298 13.3716 11.1747 13.8816C11.0197 14.3916 10.9422 15.0097 10.9422 15.7359C10.9422 16.4621 11.0177 17.0802 11.1686 17.5902C11.3196 18.0961 11.5399 18.4796 11.8296 18.7407C12.1192 19.0018 12.4619 19.1324 12.8577 19.1324ZM20.8746 20.1666H19.516V12.6576H19.4671L17.3557 14.0407V12.7494L19.5527 11.3052H20.8746V20.1666Z" fill="#ABB7C2"/>
</svg>
