<svg width="32" height="32" viewBox="0 0 32 32" fill="none" xmlns="http://www.w3.org/2000/svg">
<rect x="0.783333" y="0.783333" width="29.7667" height="29.7667" rx="14.8833" stroke="white" stroke-width="1.56667"/>
<path d="M12.8577 20.2891C12.1764 20.2891 11.5929 20.1117 11.1074 19.7567C10.6219 19.4018 10.2507 18.8836 9.99363 18.2023C9.73659 17.521 9.60808 16.6989 9.60808 15.736C9.60808 14.7813 9.73659 13.9633 9.99363 13.282C10.2507 12.6006 10.624 12.0805 11.1135 11.7214C11.6031 11.3624 12.1845 11.1829 12.8577 11.1829C13.5309 11.1829 14.1122 11.3624 14.6018 11.7214C15.0914 12.0805 15.4647 12.6006 15.7217 13.282C15.9788 13.9633 16.1073 14.7813 16.1073 15.736C16.1073 16.6989 15.9788 17.521 15.7217 18.2023C15.4688 18.8836 15.0975 19.4018 14.6079 19.7567C14.1224 20.1117 13.539 20.2891 12.8577 20.2891ZM12.8577 19.1325C13.2534 19.1325 13.5941 19.0019 13.8797 18.7408C14.1694 18.4797 14.3897 18.0962 14.5406 17.5903C14.6916 17.0803 14.765 16.4622 14.7609 15.736C14.7609 15.0098 14.6855 14.3917 14.5345 13.8817C14.3836 13.3717 14.1653 12.9842 13.8797 12.719C13.5941 12.4538 13.2534 12.3212 12.8577 12.3212C12.4619 12.3212 12.1213 12.4538 11.8357 12.719C11.5501 12.9842 11.3298 13.3717 11.1747 13.8817C11.0197 14.3917 10.9422 15.0098 10.9422 15.736C10.9422 16.4622 11.0177 17.0803 11.1686 17.5903C11.3196 18.0962 11.5399 18.4797 11.8296 18.7408C12.1192 19.0019 12.4619 19.1325 12.8577 19.1325ZM20.8746 20.1667H19.516V12.6578H19.4671L17.3557 14.0408V12.7496L19.5527 11.3053H20.8746V20.1667Z" fill="white"/>
</svg>
