<svg width="32" height="32" viewBox="0 0 32 32" fill="none" xmlns="http://www.w3.org/2000/svg">
<rect x="0.783333" y="0.783333" width="29.7667" height="29.7667" rx="14.8833" stroke="#CFD6DC" stroke-width="1.56667"/>
<path d="M11.9397 20.289C11.2584 20.289 10.675 20.1115 10.1895 19.7566C9.70395 19.4017 9.33269 18.8835 9.07566 18.2022C8.81863 17.5208 8.69011 16.6987 8.69011 15.7359C8.69011 14.7812 8.81863 13.9632 9.07566 13.2819C9.33269 12.6005 9.70599 12.0803 10.1956 11.7213C10.6852 11.3623 11.2665 11.1828 11.9397 11.1828C12.6129 11.1828 13.1943 11.3623 13.6839 11.7213C14.1734 12.0803 14.5467 12.6005 14.8038 13.2819C15.0608 13.9632 15.1893 14.7812 15.1893 15.7359C15.1893 16.6987 15.0608 17.5208 14.8038 18.2022C14.5508 18.8835 14.1796 19.4017 13.69 19.7566C13.2045 20.1115 12.6211 20.289 11.9397 20.289ZM11.9397 19.1324C12.3355 19.1324 12.6761 19.0018 12.9617 18.7407C13.2514 18.4796 13.4717 18.0961 13.6227 17.5902C13.7736 17.0802 13.8471 16.4621 13.843 15.7359C13.843 15.0097 13.7675 14.3916 13.6165 13.8816C13.4656 13.3716 13.2473 12.984 12.9617 12.7188C12.6761 12.4536 12.3355 12.3211 11.9397 12.3211C11.544 12.3211 11.2033 12.4536 10.9177 12.7188C10.6321 12.984 10.4118 13.3716 10.2568 13.8816C10.1017 14.3916 10.0242 15.0097 10.0242 15.7359C10.0242 16.4621 10.0997 17.0802 10.2507 17.5902C10.4016 18.0961 10.6219 18.4796 10.9116 18.7407C11.2013 19.0018 11.544 19.1324 11.9397 19.1324ZM16.5846 19.1875L19.6629 16.0847C20.0342 15.7012 20.3198 15.3911 20.5197 15.1545C20.7196 14.9179 20.8685 14.6853 20.9664 14.4569C21.0684 14.2243 21.1194 13.9836 21.1194 13.7347C21.1194 13.4532 21.048 13.2043 20.9052 12.9881C20.7624 12.7719 20.5666 12.6046 20.3177 12.4863C20.0688 12.368 19.7894 12.3088 19.4793 12.3088C19.157 12.3088 18.8734 12.3741 18.6287 12.5046C18.3879 12.6311 18.2003 12.8147 18.0656 13.0554C17.9351 13.2921 17.8698 13.5654 17.8698 13.8755H16.5908C16.5908 13.3451 16.7152 12.8759 16.9641 12.4679C17.2129 12.0599 17.5577 11.7438 17.9983 11.5194C18.443 11.295 18.9469 11.1828 19.5099 11.1828C20.0688 11.1828 20.5666 11.2929 21.0031 11.5132C21.4397 11.7295 21.7803 12.0293 22.0251 12.4129C22.274 12.7923 22.3984 13.2186 22.3984 13.6919C22.3984 14.0305 22.3352 14.3569 22.2087 14.6711C22.0823 14.9852 21.8681 15.332 21.5662 15.7114C21.2642 16.0908 20.8318 16.558 20.2688 17.1129L18.4634 18.9427V19.01H22.5453V20.1666H16.5908L16.5846 19.1875Z" fill="#ABB7C2"/>
</svg>
