<svg width="32" height="32" viewBox="0 0 32 32" fill="none" xmlns="http://www.w3.org/2000/svg">
<rect x="0.783333" y="0.783333" width="29.7667" height="29.7667" rx="14.8833" stroke="white" stroke-width="1.56667"/>
<path d="M11.9397 20.2891C11.2584 20.2891 10.675 20.1117 10.1895 19.7567C9.70395 19.4018 9.33269 18.8836 9.07566 18.2023C8.81863 17.521 8.69011 16.6989 8.69011 15.736C8.69011 14.7813 8.81863 13.9633 9.07566 13.282C9.33269 12.6006 9.70599 12.0805 10.1956 11.7214C10.6852 11.3624 11.2665 11.1829 11.9397 11.1829C12.6129 11.1829 13.1943 11.3624 13.6839 11.7214C14.1734 12.0805 14.5467 12.6006 14.8038 13.282C15.0608 13.9633 15.1893 14.7813 15.1893 15.736C15.1893 16.6989 15.0608 17.521 14.8038 18.2023C14.5508 18.8836 14.1796 19.4018 13.69 19.7567C13.2045 20.1117 12.6211 20.2891 11.9397 20.2891ZM11.9397 19.1325C12.3355 19.1325 12.6761 19.0019 12.9617 18.7408C13.2514 18.4797 13.4717 18.0962 13.6227 17.5903C13.7736 17.0803 13.8471 16.4622 13.843 15.736C13.843 15.0098 13.7675 14.3917 13.6165 13.8817C13.4656 13.3717 13.2473 12.9842 12.9617 12.719C12.6761 12.4538 12.3355 12.3212 11.9397 12.3212C11.544 12.3212 11.2033 12.4538 10.9177 12.719C10.6321 12.9842 10.4118 13.3717 10.2568 13.8817C10.1017 14.3917 10.0242 15.0098 10.0242 15.736C10.0242 16.4622 10.0997 17.0803 10.2507 17.5903C10.4016 18.0962 10.6219 18.4797 10.9116 18.7408C11.2013 19.0019 11.544 19.1325 11.9397 19.1325ZM16.5846 19.1876L19.6629 16.0848C20.0342 15.7013 20.3198 15.3913 20.5197 15.1546C20.7196 14.918 20.8685 14.6855 20.9664 14.457C21.0684 14.2244 21.1194 13.9837 21.1194 13.7348C21.1194 13.4533 21.048 13.2045 20.9052 12.9882C20.7624 12.772 20.5666 12.6047 20.3177 12.4864C20.0688 12.3681 19.7894 12.3089 19.4793 12.3089C19.157 12.3089 18.8734 12.3742 18.6287 12.5048C18.3879 12.6312 18.2003 12.8148 18.0656 13.0556C17.9351 13.2922 17.8698 13.5655 17.8698 13.8756H16.5908C16.5908 13.3452 16.7152 12.876 16.9641 12.4681C17.2129 12.0601 17.5577 11.7439 17.9983 11.5195C18.443 11.2951 18.9469 11.1829 19.5099 11.1829C20.0688 11.1829 20.5666 11.2931 21.0031 11.5134C21.4397 11.7296 21.7803 12.0295 22.0251 12.413C22.274 12.7924 22.3984 13.2187 22.3984 13.692C22.3984 14.0306 22.3352 14.357 22.2087 14.6712C22.0823 14.9853 21.8681 15.3321 21.5662 15.7115C21.2642 16.091 20.8318 16.5581 20.2688 17.113L18.4634 18.9428V19.0101H22.5453V20.1667H16.5908L16.5846 19.1876Z" fill="white"/>
</svg>
