<svg width="32" height="32" viewBox="0 0 32 32" fill="none" xmlns="http://www.w3.org/2000/svg">
<rect x="0.783333" y="0.783333" width="29.7667" height="29.7667" rx="14.8833" stroke="#CFD6DC" stroke-width="1.56667"/>
<path d="M11.75 20.2891C11.0687 20.2891 10.4852 20.1117 9.99974 19.7567C9.51424 19.4018 9.14297 18.8836 8.88594 18.2023C8.62891 17.521 8.5004 16.6989 8.5004 15.736C8.5004 14.7813 8.62891 13.9633 8.88594 13.282C9.14297 12.6006 9.51628 12.0805 10.0059 11.7214C10.4954 11.3624 11.0768 11.1829 11.75 11.1829C12.4232 11.1829 13.0046 11.3624 13.4941 11.7214C13.9837 12.0805 14.357 12.6006 14.6141 13.282C14.8711 13.9633 14.9996 14.7813 14.9996 15.736C14.9996 16.6989 14.8711 17.521 14.6141 18.2023C14.3611 18.8836 13.9898 19.4018 13.5003 19.7567C13.0148 20.1117 12.4313 20.2891 11.75 20.2891ZM11.75 19.1325C12.1458 19.1325 12.4864 19.0019 12.772 18.7408C13.0617 18.4797 13.282 18.0962 13.4329 17.5903C13.5839 17.0803 13.6573 16.4622 13.6533 15.736C13.6533 15.0098 13.5778 14.3917 13.4268 13.8817C13.2759 13.3717 13.0576 12.9842 12.772 12.719C12.4864 12.4538 12.1458 12.3212 11.75 12.3212C11.3543 12.3212 11.0136 12.4538 10.728 12.719C10.4424 12.9842 10.2221 13.3717 10.0671 13.8817C9.91203 14.3917 9.83451 15.0098 9.83451 15.736C9.83451 16.4622 9.90999 17.0803 10.0609 17.5903C10.2119 18.0962 10.4322 18.4797 10.7219 18.7408C11.0116 19.0019 11.3543 19.1325 11.75 19.1325ZM19.5405 20.2891C18.9408 20.2891 18.4022 20.1871 17.9249 19.9832C17.4475 19.7792 17.0722 19.4936 16.7988 19.1264C16.5255 18.7551 16.3786 18.3288 16.3582 17.8473H17.7168C17.7372 18.0962 17.829 18.3186 17.9922 18.5144C18.1554 18.7102 18.3716 18.8612 18.6409 18.9673C18.9102 19.0733 19.208 19.1264 19.5344 19.1264C19.8852 19.1264 20.2035 19.0652 20.4891 18.9428C20.7747 18.8163 20.995 18.647 21.15 18.4348C21.305 18.2186 21.3826 17.9697 21.3826 17.6882C21.3826 17.3904 21.305 17.1273 21.15 16.8988C20.995 16.6703 20.7665 16.4928 20.4646 16.3664C20.1668 16.2399 19.8077 16.1766 19.3875 16.1766H18.6287V15.0812H19.3875C19.7221 15.0812 20.0199 15.022 20.281 14.9037C20.5421 14.7854 20.7441 14.6202 20.8869 14.408C21.0296 14.1959 21.099 13.9511 21.0949 13.6736C21.099 13.4044 21.0378 13.1657 20.9113 12.9576C20.7849 12.7496 20.6053 12.5904 20.3728 12.4803C20.1402 12.3661 19.871 12.3089 19.565 12.3089C19.2631 12.3089 18.9836 12.362 18.7266 12.4681C18.4695 12.5741 18.2594 12.7251 18.0962 12.9209C17.9371 13.1167 17.8514 13.3473 17.8392 13.6125H16.5418C16.5622 13.1392 16.707 12.719 16.9763 12.3518C17.2497 11.9805 17.6128 11.6929 18.0656 11.4889C18.5226 11.2849 19.0244 11.1829 19.5711 11.1829C20.1382 11.1829 20.6359 11.291 21.0643 11.5072C21.4968 11.7194 21.8293 12.0091 22.0619 12.3763C22.2944 12.7434 22.4066 13.1494 22.3984 13.5941C22.4066 13.9205 22.3454 14.2204 22.2148 14.4937C22.0884 14.763 21.9048 14.9894 21.6641 15.173C21.4274 15.3525 21.15 15.481 20.8318 15.5585V15.6259C21.2316 15.6789 21.5743 15.8033 21.8599 15.9992C22.1496 16.1909 22.3699 16.4337 22.5208 16.7274C22.6718 17.0212 22.7432 17.3557 22.735 17.7311C22.7432 18.2125 22.6086 18.649 22.3311 19.0407C22.0537 19.4283 21.6702 19.7343 21.1806 19.9587C20.691 20.179 20.1443 20.2891 19.5405 20.2891Z" fill="#ABB7C2"/>
</svg>
