<svg width="8" height="13" viewBox="0 0 8 13" fill="none" xmlns="http://www.w3.org/2000/svg">
<path d="M1.53288 12.0179C1.82487 12.0179 2.05974 11.9171 2.26286 11.7155L7.04265 7.09247C7.3156 6.82164 7.4362 6.5571 7.44255 6.22328C7.44255 5.89577 7.3156 5.61863 7.04265 5.3541L2.26921 0.724738C2.05974 0.529486 1.81853 0.428711 1.53288 0.428711C0.948898 0.428711 0.466476 0.894796 0.466476 1.47425C0.466476 1.76398 0.59343 2.02852 0.80925 2.24896L4.95427 6.22958L0.80925 10.1976C0.587082 10.4181 0.466476 10.6826 0.466476 10.9723C0.466476 11.5455 0.948898 12.0179 1.53288 12.0179Z" fill="#ABABAB"/>
</svg>
