<svg width="40" height="40" viewBox="0 0 40 40" fill="none" xmlns="http://www.w3.org/2000/svg">
<ellipse opacity="0.05" cx="20" cy="19.845" rx="20" ry="19.845" fill="#555555"/>
<path d="M23.0214 10.1404C23.5348 10.3931 23.7174 10.8029 23.7231 11.6957V12.1842L25.4573 12.2011L27.1914 12.2179L27.4424 12.3864C27.5736 12.4818 27.7505 12.6727 27.8303 12.8075C27.9615 13.049 27.9729 13.1163 27.99 14.1663C28.0072 14.7784 28.0015 15.3343 27.9786 15.4129C27.9102 15.6768 27.8018 15.7273 27.2827 15.7273H26.8035V22.033C26.8035 26.3004 26.7864 28.4453 26.7408 28.6699C26.6324 29.2427 26.1874 29.748 25.6398 29.9052C25.212 30.0344 14.7556 30.0288 14.3278 29.9052C13.9627 29.7985 13.5121 29.4111 13.3295 29.0461L13.1983 28.7822L13.1812 22.252L13.1698 15.7273H12.6963C11.9605 15.7273 12.0004 15.8059 12.0004 14.3123C12.0004 13.0826 12.0004 13.0546 12.143 12.8075C12.2229 12.6727 12.3997 12.4818 12.5309 12.3864L12.7819 12.2179L14.5104 12.2011L16.2388 12.1842L16.2616 11.5554C16.2902 10.8647 16.3643 10.6289 16.6267 10.3706C17.0089 10 16.9576 10 19.9924 10H22.7305L23.0214 10.1404ZM17.2827 10.8142C17.066 10.9209 17.0489 10.9826 17.0489 11.634V12.1899H19.9867H22.9245V11.6115C22.9245 11.0163 22.8959 10.9152 22.6678 10.7973C22.5879 10.7524 21.7379 10.7356 19.9981 10.73C17.8646 10.73 17.4139 10.7412 17.2827 10.8142ZM12.9017 13.0546C12.742 13.1893 12.742 13.2006 12.7191 13.9024C12.7134 14.2899 12.7191 14.6942 12.7363 14.8008L12.7762 14.9974H19.9867H27.2028V14.0765V13.15L27.0545 13.0377C26.9005 12.9198 26.8948 12.9198 19.981 12.9198H13.0614L12.9017 13.0546ZM13.9399 22.1846V28.6138L14.0711 28.8215C14.1453 28.9395 14.2993 29.0742 14.4476 29.1416C14.6872 29.2595 14.7442 29.2595 19.9867 29.2595C25.2291 29.2595 25.2861 29.2595 25.5257 29.1416C25.674 29.0742 25.8281 28.9395 25.9022 28.8215L26.0334 28.6138L26.0505 22.2576C26.0562 18.765 26.0448 15.8677 26.0277 15.8172C25.9935 15.7329 25.4401 15.7273 19.9638 15.7385L13.9399 15.7554V22.1846Z" fill="#9694DB"/>
</svg>
