<svg width="22" height="22" viewBox="0 0 22 22" fill="none" xmlns="http://www.w3.org/2000/svg">
<path d="M7.96196 20.3025V17.0604C7.96196 16.2327 8.6378 15.5618 9.47149 15.5618H12.519C12.9194 15.5618 13.3033 15.7197 13.5864 16.0007C13.8695 16.2818 14.0285 16.6629 14.0285 17.0604V20.3025C14.026 20.6466 14.1619 20.9774 14.4061 21.2216C14.6503 21.4658 14.9826 21.6032 15.3292 21.6031H17.4084C18.3794 21.6056 19.3115 21.2245 19.9991 20.5437C20.6866 19.8629 21.073 18.9386 21.073 17.9746V8.7382C21.073 7.95951 20.7253 7.22087 20.1236 6.72128L13.0507 1.11348C11.8203 0.130247 10.0575 0.161993 8.86388 1.18888L1.95234 6.72128C1.32222 7.20615 0.945613 7.94697 0.927002 8.7382V17.9651C0.927002 19.9744 2.56771 21.6031 4.59164 21.6031H6.62332C7.34321 21.6032 7.92826 21.0266 7.93348 20.3119L7.96196 20.3025Z" fill="white"/>
</svg>
