<svg width="27" height="26" viewBox="0 0 27 26" fill="none" xmlns="http://www.w3.org/2000/svg">
<path fill-rule="evenodd" clip-rule="evenodd" d="M10.213 2.12061H16.7552C19.6286 2.12061 21.9507 3.25514 21.9825 6.1392V22.2348C21.9825 22.415 21.9401 22.5953 21.8553 22.7543C21.7175 23.0088 21.4842 23.1997 21.1979 23.2845C20.9222 23.3693 20.6147 23.3269 20.3603 23.1785L13.4894 19.743L6.60796 23.1785C6.44997 23.2622 6.26866 23.3163 6.08841 23.3163C5.49463 23.3163 5.01749 22.8286 5.01749 22.2348V6.1392C5.01749 3.25514 7.35018 2.12061 10.213 2.12061ZM9.49201 10.2002H17.4762C17.9321 10.2002 18.3032 9.82804 18.3032 9.36256C18.3032 8.89602 17.9321 8.52491 17.4762 8.52491H9.49201C9.03607 8.52491 8.66496 8.89602 8.66496 9.36256C8.66496 9.82804 9.03607 10.2002 9.49201 10.2002Z" fill="#A2A2A2"/>
</svg>
